  0
SECTION
  2
HEADER
  9
$ACADVER
  1
AC1014
  9
$HANDSEED
  5
FFFF
  9
$MEASUREMENT
 70
     1
  0
ENDSEC
  0
SECTION
  2
TABLES
  0
TABLE
  2
VPORT
  5
8
330
0
100
AcDbSymbolTable
 70
     4
  0
VPORT
  5
2E
330
8
100
AcDbSymbolTableRecord
100
AcDbViewportTableRecord
  2
*ACTIVE
 70
     0
 10
0.0
 20
0.0
 11
1.0
 21
1.0
 12
210.0
 22
148.5
 13
0.0
 23
0.0
 14
10.0
 24
10.0
 15
10.0
 25
10.0
 16
0.0
 26
0.0
 36
1.0
 17
0.0
 27
0.0
 37
0.0
 40
341.0
 41
1.24
 42
50.0
 43
0.0
 44
0.0
 50
0.0
 51
0.0
 71
     0
 72
   100
 73
     1
 74
     3
 75
     0
 76
     0
 77
     0
 78
     0
  0
ENDTAB
  0
TABLE
  2
LTYPE
  5
5
330
0
100
AcDbSymbolTable
 70
     1
  0
LTYPE
  5
14
330
5
100
AcDbSymbolTableRecord
100
AcDbLinetypeTableRecord
  2
BYBLOCK
 70
     0
  3

 72
    65
 73
     0
 40
0.0
  0
LTYPE
  5
15
330
5
100
AcDbSymbolTableRecord
100
AcDbLinetypeTableRecord
  2
BYLAYER
 70
     0
  3

 72
    65
 73
     0
 40
0.0
  0
LTYPE
  5
16
330
5
100
AcDbSymbolTableRecord
100
AcDbLinetypeTableRecord
  2
CONTINUOUS
 70
     0
  3
Solid line
 72
    65
 73
     0
 40
0.0
  0
ENDTAB
  0
TABLE
  2
LAYER
  5
2
100
AcDbSymbolTable
 70
3
  0
LAYER
  5
50
100
AcDbSymbolTableRecord
100
AcDbLayerTableRecord
  2
0
 70
0
  6
CONTINUOUS
  0
LAYER
  5
51
100
AcDbSymbolTableRecord
100
AcDbLayerTableRecord
  2
IS_Graphics
 70
0
  6
CONTINUOUS
  0
LAYER
  5
52
100
AcDbSymbolTableRecord
100
AcDbLayerTableRecord
  2
IS_EdgeCuts
 70
0
  6
CONTINUOUS
  0
ENDTAB
  0
TABLE
  2
STYLE
  5
3
330
0
100
AcDbSymbolTable
 70
     1
  0
STYLE
  5
11
330
3
100
AcDbSymbolTableRecord
100
AcDbTextStyleTableRecord
  2
STANDARD
 70
     0
 40
0.0
 41
1.0
 50
0.0
 71
     0
 42
2.5
  3
txt
  4

  0
ENDTAB
  0
TABLE
  2
VIEW
  5
6
330
0
100
AcDbSymbolTable
 70
     0
  0
ENDTAB
  0
TABLE
  2
UCS
  5
7
330
0
100
AcDbSymbolTable
 70
     0
  0
ENDTAB
  0
TABLE
  2
APPID
  5
9
330
0
100
AcDbSymbolTable
 70
     2
  0
APPID
  5
12
330
9
100
AcDbSymbolTableRecord
100
AcDbRegAppTableRecord
  2
ACAD
 70
     0
  0
ENDTAB
  0
TABLE
  2
DIMSTYLE
  5
A
330
0
100
AcDbSymbolTable
 70
     1
  0
DIMSTYLE
105
27
330
A
100
AcDbSymbolTableRecord
100
AcDbDimStyleTableRecord
  2
ISO-25
 70
     0
  3

  4

  5

  6

  7

 40
1.0
 41
2.5
 42
0.625
 43
3.75
 44
1.25
 45
0.0
 46
0.0
 47
0.0
 48
0.0
140
2.5
141
2.5
142
0.0
143
0.03937007874016
144
1.0
145
0.0
146
1.0
147
0.625
 71
     0
 72
     0
 73
     0
 74
     0
 75
     0
 76
     0
 77
     1
 78
     8
170
     0
171
     3
172
     1
173
     0
174
     0
175
     0
176
     0
177
     0
178
     0
270
     2
271
     2
272
     2
273
     2
274
     3
340
11
275
     0
280
     0
281
     0
282
     0
283
     0
284
     8
285
     0
286
     0
287
     3
288
     0
  0
ENDTAB
  0
TABLE
  2
BLOCK_RECORD
  5
1
330
0
100
AcDbSymbolTable
 70
     1
  0
BLOCK_RECORD
  5
1F
330
1
100
AcDbSymbolTableRecord
100
AcDbBlockTableRecord
  2
*MODEL_SPACE
  0
BLOCK_RECORD
  5
1B
330
1
100
AcDbSymbolTableRecord
100
AcDbBlockTableRecord
  2
*PAPER_SPACE
  0
ENDTAB
  0
ENDSEC
  0
SECTION
  2
BLOCKS
  0
BLOCK
  5
20
330
1F
100
AcDbEntity
  8
0
100
AcDbBlockBegin
  2
*MODEL_SPACE
 70
     0
 10
0.0
 20
0.0
 30
0.0
  3
*MODEL_SPACE
  1

  0
ENDBLK
  5
21
330
1F
100
AcDbEntity
  8
0
100
AcDbBlockEnd
  0
BLOCK
  5
1C
330
1B
100
AcDbEntity
 67
     1
  8
0
100
AcDbBlockBegin
  2
*PAPER_SPACE
  1

  0
ENDBLK
  5
1D
330
1B
100
AcDbEntity
 67
     1
  8
0
100
AcDbBlockEnd
  0
ENDSEC
  0
SECTION
  2
ENTITIES
  0
LWPOLYLINE
  5
100
100
AcDbEntity
  8
IS_EdgeCuts
 62
7
100
AcDbPolyline
 90
2
 70
1
 10
4.000000
 20
74.000003
 30
0.0
 10
96.000003
 20
74.000003
 30
0.0
  0
SPLINE
  5
101
100
AcDbEntity
  8
IS_EdgeCuts
 62
7
100
AcDbSpline
 70
0
 71
3
 72
10
 73
6
 74
4
 40
0.000000
 40
0.000000
 40
0.000000
 40
0.000000
 40
2.093983
 40
4.121233
 40
6.215216
 40
6.215216
 40
6.215216
 40
6.215216
 10
96.000003
 20
74.000003
 30
0.0
 10
96.702013
 20
73.890847
 30
0.0
 10
98.083660
 20
73.676012
 30
0.0
 10
99.676013
 20
72.083659
 30
0.0
 10
99.890847
 20
70.702012
 30
0.0
 10
100.000003
 20
70.000002
 30
0.0
 11
96.000003
 21
74.000003
 31
0.0
 11
98.021929
 21
73.455410
 31
0.0
 11
99.455411
 21
72.021929
 31
0.0
 11
100.000003
 21
70.000002
 31
0.0
  0
LWPOLYLINE
  5
102
100
AcDbEntity
  8
IS_EdgeCuts
 62
7
100
AcDbPolyline
 90
2
 70
1
 10
100.000003
 20
70.000002
 30
0.0
 10
100.000003
 20
3.999993
 30
0.0
  0
SPLINE
  5
103
100
AcDbEntity
  8
IS_EdgeCuts
 62
7
100
AcDbSpline
 70
0
 71
3
 72
10
 73
6
 74
4
 40
0.000000
 40
0.000000
 40
0.000000
 40
0.000000
 40
2.093973
 40
4.121222
 40
6.215206
 40
6.215206
 40
6.215206
 40
6.215206
 10
100.000003
 20
3.999993
 30
0.0
 10
99.890846
 20
3.297987
 30
0.0
 10
99.676010
 20
1.916345
 30
0.0
 10
98.083659
 20
0.323994
 30
0.0
 10
96.702013
 20
0.109159
 30
0.0
 10
96.000003
 20
0.000001
 30
0.0
 11
100.000003
 21
3.999993
 31
0.0
 11
99.455411
 21
1.978078
 31
0.0
 11
98.021929
 21
0.544596
 31
0.0
 11
96.000003
 21
0.000001
 31
0.0
  0
LWPOLYLINE
  5
104
100
AcDbEntity
  8
IS_EdgeCuts
 62
7
100
AcDbPolyline
 90
2
 70
1
 10
96.000003
 20
0.000001
 30
0.0
 10
4.000000
 20
0.000001
 30
0.0
  0
SPLINE
  5
105
100
AcDbEntity
  8
IS_EdgeCuts
 62
7
100
AcDbSpline
 70
0
 71
3
 72
10
 73
6
 74
4
 40
0.000000
 40
0.000000
 40
0.000000
 40
0.000000
 40
2.093984
 40
4.121233
 40
6.215206
 40
6.215206
 40
6.215206
 40
6.215206
 10
4.000000
 20
0.000001
 30
0.0
 10
3.297990
 20
0.109159
 30
0.0
 10
1.916344
 20
0.323994
 30
0.0
 10
0.323993
 20
1.916345
 30
0.0
 10
0.109157
 20
3.297987
 30
0.0
 10
0.000000
 20
3.999993
 30
0.0
 11
4.000000
 21
0.000001
 31
0.0
 11
1.978074
 21
0.544596
 31
0.0
 11
0.544593
 21
1.978078
 31
0.0
 11
0.000000
 21
3.999993
 31
0.0
  0
LWPOLYLINE
  5
106
100
AcDbEntity
  8
IS_EdgeCuts
 62
7
100
AcDbPolyline
 90
2
 70
1
 10
0.000000
 20
3.999993
 30
0.0
 10
0.000000
 20
70.000002
 30
0.0
  0
LWPOLYLINE
  5
107
100
AcDbEntity
  8
IS_EdgeCuts
 62
7
100
AcDbPolyline
 90
2
 70
1
 10
4.000000
 20
74.000003
 30
0.0
 10
4.000000
 20
74.000003
 30
0.0
  0
SPLINE
  5
108
100
AcDbEntity
  8
IS_EdgeCuts
 62
7
100
AcDbSpline
 70
0
 71
3
 72
10
 73
6
 74
4
 40
0.000000
 40
0.000000
 40
0.000000
 40
0.000000
 40
2.093983
 40
4.121232
 40
6.215216
 40
6.215216
 40
6.215216
 40
6.215216
 10
0.000000
 20
70.000002
 30
0.0
 10
0.109156
 20
70.702012
 30
0.0
 10
0.323990
 20
72.083659
 30
0.0
 10
1.916343
 20
73.676012
 30
0.0
 10
3.297990
 20
73.890846
 30
0.0
 10
4.000000
 20
74.000003
 30
0.0
 11
0.000000
 21
70.000002
 31
0.0
 11
0.544593
 21
72.021929
 31
0.0
 11
1.978074
 21
73.455410
 31
0.0
 11
4.000000
 21
74.000003
 31
0.0
  0
LWPOLYLINE
  5
109
100
AcDbEntity
  8
IS_EdgeCuts
 62
7
100
AcDbPolyline
 90
5
 70
1
 10
25.000001
 20
59.999910
 30
0.0
 10
87.000001
 20
59.999910
 30
0.0
 10
87.000001
 20
15.999907
 30
0.0
 10
25.000001
 20
15.999907
 30
0.0
 10
25.000001
 20
59.999910
 30
0.0
  0
SPLINE
  5
10a
100
AcDbEntity
  8
IS_EdgeCuts
 62
7
100
AcDbSpline
 70
0
 71
3
 72
31
 73
27
 74
25
 40
0.000000
 40
0.000000
 40
0.000000
 40
0.000000
 40
2.094200
 40
4.171069
 40
6.265269
 40
8.359468
 40
10.436338
 40
12.530538
 40
14.624737
 40
16.701607
 40
18.795806
 40
20.890006
 40
22.966875
 40
25.061075
 40
27.155274
 40
29.232143
 40
31.326342
 40
33.420541
 40
35.497410
 40
37.591609
 40
39.685809
 40
41.762678
 40
43.856877
 40
45.951076
 40
48.027945
 40
50.122144
 40
50.122144
 40
50.122144
 40
50.122144
 10
18.500000
 20
20.499994
 30
0.0
 10
18.446670
 20
19.799928
 30
0.0
 10
18.340452
 20
18.405587
 30
0.0
 10
17.501051
 20
16.454270
 30
0.0
 10
16.223985
 20
14.777786
 30
0.0
 10
14.545252
 20
13.492331
 30
0.0
 10
12.594533
 20
12.684068
 30
0.0
 10
10.499965
 20
12.407569
 30
0.0
 10
8.405602
 20
12.684069
 30
0.0
 10
6.454273
 20
13.492331
 30
0.0
 10
4.777793
 20
14.777786
 30
0.0
 10
3.492338
 20
16.454270
 30
0.0
 10
2.684077
 20
18.405587
 30
0.0
 10
2.407579
 20
20.499994
 30
0.0
 10
2.684077
 20
22.594400
 30
0.0
 10
3.492339
 20
24.545717
 30
0.0
 10
4.777794
 20
26.222201
 30
0.0
 10
6.454274
 20
27.507655
 30
0.0
 10
8.405603
 20
28.315917
 30
0.0
 10
10.499965
 20
28.592417
 30
0.0
 10
12.594533
 20
28.315917
 30
0.0
 10
14.545251
 20
27.507655
 30
0.0
 10
16.223984
 20
26.222201
 30
0.0
 10
17.501050
 20
24.545717
 30
0.0
 10
18.340451
 20
22.594400
 30
0.0
 10
18.446670
 20
21.200061
 30
0.0
 10
18.500000
 20
20.499994
 30
0.0
 11
18.500000
 21
20.499994
 31
0.0
 11
18.225916
 21
18.423808
 31
0.0
 11
17.431133
 21
16.505030
 31
0.0
 11
16.156855
 21
14.843138
 31
0.0
 11
14.494963
 21
13.568859
 31
0.0
 11
12.576186
 21
12.774075
 31
0.0
 11
10.500000
 21
12.499990
 31
0.0
 11
8.423813
 21
12.774075
 31
0.0
 11
6.505036
 21
13.568859
 31
0.0
 11
4.843144
 21
14.843138
 31
0.0
 11
3.568866
 21
16.505030
 31
0.0
 11
2.774083
 21
18.423808
 31
0.0
 11
2.500000
 21
20.499994
 31
0.0
 11
2.774084
 21
22.576180
 31
0.0
 11
3.568867
 21
24.494957
 31
0.0
 11
4.843145
 21
26.156849
 31
0.0
 11
6.505037
 21
27.431127
 31
0.0
 11
8.423814
 21
28.225911
 31
0.0
 11
10.500000
 21
28.499995
 31
0.0
 11
12.576186
 21
28.225911
 31
0.0
 11
14.494962
 21
27.431127
 31
0.0
 11
16.156854
 21
26.156849
 31
0.0
 11
17.431132
 21
24.494957
 31
0.0
 11
18.225916
 21
22.576180
 31
0.0
 11
18.500000
 21
20.499994
 31
0.0
  0
LWPOLYLINE
  5
10b
100
AcDbEntity
  8
IS_EdgeCuts
 62
7
100
AcDbPolyline
 90
2
 70
1
 10
18.500000
 20
20.499994
 30
0.0
 10
18.500000
 20
20.499994
 30
0.0
  0
SPLINE
  5
10c
100
AcDbEntity
  8
IS_EdgeCuts
 62
7
100
AcDbSpline
 70
0
 71
3
 72
31
 73
27
 74
25
 40
0.000000
 40
0.000000
 40
0.000000
 40
0.000000
 40
2.094199
 40
4.171068
 40
6.265267
 40
8.359467
 40
10.436336
 40
12.530535
 40
14.624734
 40
16.701603
 40
18.795802
 40
20.890001
 40
22.966870
 40
25.061069
 40
27.155269
 40
29.232137
 40
31.326337
 40
33.420536
 40
35.497405
 40
37.591604
 40
39.685803
 40
41.762672
 40
43.856871
 40
45.951071
 40
48.027940
 40
50.122139
 40
50.122139
 40
50.122139
 40
50.122139
 10
18.500002
 20
37.499991
 30
0.0
 10
18.446672
 20
36.799925
 30
0.0
 10
18.340454
 20
35.405585
 30
0.0
 10
17.501052
 20
33.454268
 30
0.0
 10
16.223986
 20
31.777785
 30
0.0
 10
14.545253
 20
30.492330
 30
0.0
 10
12.594535
 20
29.684068
 30
0.0
 10
10.499968
 20
29.407569
 30
0.0
 10
8.405605
 20
29.684068
 30
0.0
 10
6.454276
 20
30.492330
 30
0.0
 10
4.777796
 20
31.777785
 30
0.0
 10
3.492341
 20
33.454268
 30
0.0
 10
2.684080
 20
35.405585
 30
0.0
 10
2.407581
 20
37.499991
 30
0.0
 10
2.684080
 20
39.594397
 30
0.0
 10
3.492341
 20
41.545714
 30
0.0
 10
4.777796
 20
43.222198
 30
0.0
 10
6.454276
 20
44.507652
 30
0.0
 10
8.405605
 20
45.315914
 30
0.0
 10
10.499968
 20
45.592414
 30
0.0
 10
12.594535
 20
45.315914
 30
0.0
 10
14.545253
 20
44.507652
 30
0.0
 10
16.223986
 20
43.222198
 30
0.0
 10
17.501052
 20
41.545714
 30
0.0
 10
18.340454
 20
39.594397
 30
0.0
 10
18.446672
 20
38.200058
 30
0.0
 10
18.500002
 20
37.499991
 30
0.0
 11
18.500002
 21
37.499991
 31
0.0
 11
18.225918
 21
35.423805
 31
0.0
 11
17.431135
 21
33.505028
 31
0.0
 11
16.156856
 21
31.843136
 31
0.0
 11
14.494965
 21
30.568858
 31
0.0
 11
12.576188
 21
29.774075
 31
0.0
 11
10.500002
 21
29.499990
 31
0.0
 11
8.423816
 21
29.774075
 31
0.0
 11
6.505039
 21
30.568858
 31
0.0
 11
4.843147
 21
31.843136
 31
0.0
 11
3.568869
 21
33.505029
 31
0.0
 11
2.774086
 21
35.423805
 31
0.0
 11
2.500002
 21
37.499991
 31
0.0
 11
2.774086
 21
39.576177
 31
0.0
 11
3.568869
 21
41.494954
 31
0.0
 11
4.843147
 21
43.156846
 31
0.0
 11
6.505039
 21
44.431124
 31
0.0
 11
8.423816
 21
45.225908
 31
0.0
 11
10.500002
 21
45.499992
 31
0.0
 11
12.576188
 21
45.225908
 31
0.0
 11
14.494965
 21
44.431125
 31
0.0
 11
16.156856
 21
43.156846
 31
0.0
 11
17.431135
 21
41.494954
 31
0.0
 11
18.225918
 21
39.576177
 31
0.0
 11
18.500002
 21
37.499991
 31
0.0
  0
LWPOLYLINE
  5
10d
100
AcDbEntity
  8
IS_EdgeCuts
 62
7
100
AcDbPolyline
 90
2
 70
1
 10
18.500002
 20
37.499991
 30
0.0
 10
18.500002
 20
37.499991
 30
0.0
  0
SPLINE
  5
10e
100
AcDbEntity
  8
IS_EdgeCuts
 62
7
100
AcDbSpline
 70
0
 71
3
 72
25
 73
21
 74
19
 40
0.000000
 40
0.000000
 40
0.000000
 40
0.000000
 40
2.094199
 40
4.171068
 40
6.265267
 40
8.359467
 40
10.436336
 40
12.530535
 40
14.624734
 40
16.701603
 40
18.795802
 40
20.890001
 40
22.966870
 40
25.061069
 40
29.243942
 40
33.302751
 40
37.485624
 40
41.668496
 40
45.727306
 40
49.910179
 40
49.910179
 40
49.910179
 40
49.910179
 10
18.500002
 20
54.499988
 30
0.0
 10
18.446672
 20
53.799922
 30
0.0
 10
18.340454
 20
52.405582
 30
0.0
 10
17.501052
 20
50.454265
 30
0.0
 10
16.223986
 20
48.777782
 30
0.0
 10
14.545253
 20
47.492327
 30
0.0
 10
12.594535
 20
46.684066
 30
0.0
 10
10.499967
 20
46.407565
 30
0.0
 10
8.405608
 20
46.684070
 30
0.0
 10
6.454265
 20
47.492310
 30
0.0
 10
4.777839
 20
48.777848
 30
0.0
 10
3.492184
 20
50.454017
 30
0.0
 10
2.684664
 20
52.406504
 30
0.0
 10
2.312275
 20
55.193271
 30
0.0
 10
3.251314
 20
58.692549
 30
0.0
 10
6.309428
 20
61.747112
 30
0.0
 10
10.507260
 20
62.881859
 30
0.0
 10
14.661974
 20
61.748024
 30
0.0
 10
17.846882
 20
58.688981
 30
0.0
 10
18.280121
 20
55.910262
 30
0.0
 10
18.500002
 20
54.499988
 30
0.0
 11
18.500002
 21
54.499988
 31
0.0
 11
18.225918
 21
52.423802
 31
0.0
 11
17.431135
 21
50.505026
 31
0.0
 11
16.156856
 21
48.843133
 31
0.0
 11
14.494965
 21
47.568855
 31
0.0
 11
12.576188
 21
46.774072
 31
0.0
 11
10.500002
 21
46.499987
 31
0.0
 11
8.423816
 21
46.774072
 31
0.0
 11
6.505039
 21
47.568855
 31
0.0
 11
4.843147
 21
48.843133
 31
0.0
 11
3.568869
 21
50.505026
 31
0.0
 11
2.774086
 21
52.423802
 31
0.0
 11
2.500002
 21
54.499988
 31
0.0
 11
3.592237
 21
58.537741
 31
0.0
 11
6.462249
 21
61.407752
 31
0.0
 11
10.500002
 21
62.499986
 31
0.0
 11
14.537755
 21
61.407752
 31
0.0
 11
17.407767
 21
58.537741
 31
0.0
 11
18.500002
 21
54.499988
 31
0.0
  0
LWPOLYLINE
  5
10f
100
AcDbEntity
  8
IS_EdgeCuts
 62
7
100
AcDbPolyline
 90
2
 70
1
 10
18.500002
 20
54.499988
 30
0.0
 10
18.500002
 20
54.499988
 30
0.0
  0
SPLINE
  5
110
100
AcDbEntity
  8
IS_EdgeCuts
 62
7
100
AcDbSpline
 70
0
 71
3
 72
25
 73
21
 74
19
 40
0.000000
 40
0.000000
 40
0.000000
 40
0.000000
 40
1.241790
 40
2.446749
 40
3.688539
 40
4.930329
 40
6.135288
 40
7.377078
 40
7.998794
 40
8.615364
 40
9.237080
 40
9.858795
 40
10.475366
 40
11.097082
 40
11.718797
 40
12.335368
 40
12.957084
 40
13.578799
 40
14.195370
 40
14.817086
 40
14.817086
 40
14.817086
 40
14.817086
 10
12.875000
 20
59.624997
 30
0.0
 10
12.809723
 20
59.206322
 30
0.0
 10
12.681104
 20
58.381390
 30
0.0
 10
11.735585
 20
57.473237
 30
0.0
 10
10.502154
 20
57.136630
 30
0.0
 10
9.255923
 20
57.473508
 30
0.0
 10
8.348046
 20
58.380331
 30
0.0
 10
8.069268
 20
59.419179
 30
0.0
 10
8.179821
 20
60.246501
 30
0.0
 10
8.419553
 20
60.826145
 30
0.0
 10
8.801232
 20
61.323758
 30
0.0
 10
9.298921
 20
61.705403
 30
0.0
 10
9.878226
 20
61.945349
 30
0.0
 10
10.499989
 20
62.027437
 30
0.0
 10
11.121815
 20
61.945350
 30
0.0
 10
11.700934
 20
61.705398
 30
0.0
 10
12.199308
 20
61.323778
 30
0.0
 10
12.578437
 20
60.826072
 30
0.0
 10
12.827634
 20
60.246774
 30
0.0
 10
12.859168
 20
59.832829
 30
0.0
 10
12.875000
 20
59.624997
 30
0.0
 11
12.875000
 21
59.624997
 31
0.0
 11
12.550742
 21
58.426290
 31
0.0
 11
11.698707
 21
57.574255
 31
0.0
 11
10.500000
 21
57.249998
 31
0.0
 11
9.301292
 21
57.574255
 31
0.0
 11
8.449257
 21
58.426290
 31
0.0
 11
8.125000
 21
59.624997
 31
0.0
 11
8.206368
 21
60.241365
 31
0.0
 11
8.442319
 21
60.811002
 31
0.0
 11
8.820621
 21
61.304377
 31
0.0
 11
9.313995
 21
61.682678
 31
0.0
 11
9.883632
 21
61.918630
 31
0.0
 11
10.500000
 21
61.999999
 31
0.0
 11
11.116368
 21
61.918630
 31
0.0
 11
11.686005
 21
61.682678
 31
0.0
 11
12.179379
 21
61.304377
 31
0.0
 11
12.557680
 21
60.811002
 31
0.0
 11
12.793631
 21
60.241365
 31
0.0
 11
12.875000
 21
59.624997
 31
0.0
  0
LWPOLYLINE
  5
111
100
AcDbEntity
  8
IS_EdgeCuts
 62
7
100
AcDbPolyline
 90
2
 70
1
 10
12.875000
 20
59.624997
 30
0.0
 10
12.875000
 20
59.624997
 30
0.0
  0
SPLINE
  5
112
100
AcDbEntity
  8
IS_EdgeCuts
 62
7
100
AcDbSpline
 70
0
 71
3
 72
25
 73
21
 74
19
 40
0.000000
 40
0.000000
 40
0.000000
 40
0.000000
 40
1.241790
 40
2.446749
 40
3.688539
 40
4.930329
 40
6.135288
 40
7.377078
 40
7.998794
 40
8.615364
 40
9.237080
 40
9.858795
 40
10.475366
 40
11.097082
 40
11.718797
 40
12.335368
 40
12.957084
 40
13.578799
 40
14.195370
 40
14.817086
 40
14.817086
 40
14.817086
 40
14.817086
 10
12.875000
 20
42.625000
 30
0.0
 10
12.809723
 20
42.206325
 30
0.0
 10
12.681104
 20
41.381393
 30
0.0
 10
11.735585
 20
40.473240
 30
0.0
 10
10.502154
 20
40.136633
 30
0.0
 10
9.255923
 20
40.473511
 30
0.0
 10
8.348046
 20
41.380334
 30
0.0
 10
8.069268
 20
42.419182
 30
0.0
 10
8.179821
 20
43.246504
 30
0.0
 10
8.419553
 20
43.826148
 30
0.0
 10
8.801232
 20
44.323761
 30
0.0
 10
9.298921
 20
44.705406
 30
0.0
 10
9.878226
 20
44.945352
 30
0.0
 10
10.499989
 20
45.027440
 30
0.0
 10
11.121815
 20
44.945353
 30
0.0
 10
11.700934
 20
44.705401
 30
0.0
 10
12.199308
 20
44.323781
 30
0.0
 10
12.578437
 20
43.826075
 30
0.0
 10
12.827634
 20
43.246777
 30
0.0
 10
12.859168
 20
42.832832
 30
0.0
 10
12.875000
 20
42.625000
 30
0.0
 11
12.875000
 21
42.625000
 31
0.0
 11
12.550742
 21
41.426293
 31
0.0
 11
11.698707
 21
40.574258
 31
0.0
 11
10.500000
 21
40.250001
 31
0.0
 11
9.301292
 21
40.574258
 31
0.0
 11
8.449257
 21
41.426293
 31
0.0
 11
8.125000
 21
42.625000
 31
0.0
 11
8.206368
 21
43.241368
 31
0.0
 11
8.442319
 21
43.811005
 31
0.0
 11
8.820621
 21
44.304380
 31
0.0
 11
9.313995
 21
44.682681
 31
0.0
 11
9.883632
 21
44.918633
 31
0.0
 11
10.500000
 21
45.000002
 31
0.0
 11
11.116368
 21
44.918633
 31
0.0
 11
11.686005
 21
44.682681
 31
0.0
 11
12.179379
 21
44.304380
 31
0.0
 11
12.557680
 21
43.811005
 31
0.0
 11
12.793631
 21
43.241368
 31
0.0
 11
12.875000
 21
42.625000
 31
0.0
  0
LWPOLYLINE
  5
113
100
AcDbEntity
  8
IS_EdgeCuts
 62
7
100
AcDbPolyline
 90
2
 70
1
 10
12.875000
 20
42.625000
 30
0.0
 10
12.875000
 20
42.625000
 30
0.0
  0
SPLINE
  5
114
100
AcDbEntity
  8
IS_EdgeCuts
 62
7
100
AcDbSpline
 70
0
 71
3
 72
25
 73
21
 74
19
 40
0.000000
 40
0.000000
 40
0.000000
 40
0.000000
 40
0.621716
 40
1.238286
 40
1.860002
 40
2.481718
 40
3.098288
 40
3.720004
 40
4.341720
 40
4.958290
 40
5.580006
 40
6.201721
 40
6.818292
 40
7.440008
 40
8.681798
 40
9.886757
 40
11.128546
 40
12.370337
 40
13.575296
 40
14.817086
 40
14.817086
 40
14.817086
 40
14.817086
 10
12.875000
 20
25.625006
 30
0.0
 10
12.859168
 20
25.417173
 30
0.0
 10
12.827634
 20
25.003229
 30
0.0
 10
12.578437
 20
24.423931
 30
0.0
 10
12.199308
 20
23.926225
 30
0.0
 10
11.700934
 20
23.544605
 30
0.0
 10
11.121815
 20
23.304652
 30
0.0
 10
10.499989
 20
23.222566
 30
0.0
 10
9.878226
 20
23.304654
 30
0.0
 10
9.298921
 20
23.544600
 30
0.0
 10
8.801232
 20
23.926245
 30
0.0
 10
8.419553
 20
24.423858
 30
0.0
 10
8.179821
 20
25.003502
 30
0.0
 10
8.069268
 20
25.830824
 30
0.0
 10
8.348046
 20
26.869672
 30
0.0
 10
9.255923
 20
27.776495
 30
0.0
 10
10.502154
 20
28.113373
 30
0.0
 10
11.735585
 20
27.776766
 30
0.0
 10
12.681104
 20
26.868613
 30
0.0
 10
12.809723
 20
26.043681
 30
0.0
 10
12.875000
 20
25.625006
 30
0.0
 11
12.875000
 21
25.625006
 31
0.0
 11
12.793631
 21
25.008638
 31
0.0
 11
12.557680
 21
24.439001
 31
0.0
 11
12.179379
 21
23.945626
 31
0.0
 11
11.686005
 21
23.567324
 31
0.0
 11
11.116368
 21
23.331373
 31
0.0
 11
10.500000
 21
23.250004
 31
0.0
 11
9.883632
 21
23.331373
 31
0.0
 11
9.313995
 21
23.567325
 31
0.0
 11
8.820621
 21
23.945626
 31
0.0
 11
8.442319
 21
24.439001
 31
0.0
 11
8.206368
 21
25.008638
 31
0.0
 11
8.125000
 21
25.625006
 31
0.0
 11
8.449257
 21
26.823713
 31
0.0
 11
9.301292
 21
27.675748
 31
0.0
 11
10.500000
 21
28.000005
 31
0.0
 11
11.698707
 21
27.675748
 31
0.0
 11
12.550742
 21
26.823713
 31
0.0
 11
12.875000
 21
25.625006
 31
0.0
  0
LWPOLYLINE
  5
115
100
AcDbEntity
  8
IS_EdgeCuts
 62
7
100
AcDbPolyline
 90
2
 70
1
 10
12.875000
 20
25.625006
 30
0.0
 10
12.875000
 20
25.625006
 30
0.0
  0
ENDSEC
  0
SECTION
  2
OBJECTS
  0
DICTIONARY
  5
C
330
0
100
AcDbDictionary
  3
ACAD_GROUP
350
D
  3
ACAD_MLINESTYLE
350
17
  0
DICTIONARY
  5
D
330
C
100
AcDbDictionary
  0
DICTIONARY
  5
1A
330
C
100
AcDbDictionary
  0
DICTIONARY
  5
17
330
C
100
AcDbDictionary
  3
STANDARD
350
18
  0
DICTIONARY
  5
19
330
C
100
AcDbDictionary
  0
ENDSEC
  0
EOF
