<?xml version="1.0" encoding="utf-8"?>
<!-- Generator: Adobe Illustrator 14.0.0, SVG Export Plug-In . SVG Version: 6.00 Build 43363)  -->
<!DOCTYPE svg PUBLIC "-//W3C//DTD SVG 1.1//EN" "http://www.w3.org/Graphics/SVG/1.1/DTD/svg11.dtd">
<svg version="1.1" id="Ebene_1" xmlns="http://www.w3.org/2000/svg" xmlns:xlink="http://www.w3.org/1999/xlink" x="0px" y="0px"
	 width="1024px" height="233px" viewBox="0 0 1024 233" enable-background="new 0 0 1024 233" xml:space="preserve">
<polyline fill-rule="evenodd" clip-rule="evenodd" fill="#1F1A16" points="188.876,98.984 110.053,98.052 145.839,47.522 
	109.658,3.813 1.739,152.963 233.342,152.963 "/>
<path fill="#1F1A16" d="M188.888,97.974l0.473,0.006l0.298,0.36l-0.782,0.643 M232.561,153.605l-44.466-53.978l1.563-1.287
	l44.466,53.979L232.561,153.605z M234.125,152.319l1.361,1.654h-2.144v-1.011L234.125,152.319z M1.739,151.951h231.603v2.022H1.739
	V151.951z M1.739,153.974h-1.975l1.157-1.604l0.818,0.594V153.974z M110.475,4.405L2.556,153.556l-1.635-1.187L108.841,3.222
	L110.475,4.405z M108.841,3.222l0.767-1.058l0.833,1.006l-0.782,0.643L108.841,3.222z M145.057,48.166l-36.18-43.708l1.563-1.287
	l36.18,43.708L145.057,48.166z M146.62,46.879l0.49,0.591l-0.45,0.636l-0.821-0.584L146.62,46.879z M109.23,97.468l35.788-50.53
	l1.642,1.167l-35.788,50.53L109.23,97.468z M110.041,99.062l-1.922-0.022l1.112-1.571l0.822,0.584L110.041,99.062z M188.866,99.994
	l-78.825-0.932l0.022-2.02l78.825,0.932L188.866,99.994z"/>
<path fill="#1F1A16" d="M110.655,100.619l-6.704-0.029l3.938-5.42l2.778,2.014 M244.04,101.225l-133.385-0.606l0.025-6.872
	l133.386,0.606L244.04,101.225z M246.831,95.763l4.039,5.494l-6.829-0.032l0.013-3.435L246.831,95.763z M179.534,4.213l67.296,91.55
	l-5.556,4.054L173.978,8.266L179.534,4.213z M173.978,4.226l2.768-3.806l2.788,3.794l-2.777,2.025L173.978,4.226z M107.889,95.17
	l66.089-90.944l5.556,4.028l-66.089,90.943L107.889,95.17z"/>
<polyline fill-rule="evenodd" clip-rule="evenodd" fill="#1F1A16" points="310.604,230.125 268.349,230.125 278.999,219.481 
	278.999,140.707 265.137,140.707 251.615,154.229 251.615,130.395 327.341,130.395 327.341,154.229 313.819,140.707 299.79,140.707 
	299.79,219.481 "/>
<path fill-rule="evenodd" clip-rule="evenodd" fill="#1F1A16" d="M399.688,180.26c0-18.761-3.214-42.426-21.296-42.426
	c-18.091,0-21.302,23.665-21.302,42.426c0,18.767,3.21,42.428,21.302,42.428C396.475,222.688,399.688,199.026,399.688,180.26
	 M378.393,127.524c27.38,0,45.638,25.521,45.638,52.735c0,27.212-18.258,52.74-45.638,52.74c-27.387,0-45.644-25.528-45.644-52.74
	C332.749,153.045,351.005,127.524,378.393,127.524z"/>
<path fill-rule="evenodd" clip-rule="evenodd" fill="#1F1A16" d="M436.2,141.046l-10.821-10.651h42.262l-10.65,10.651v62.37
	c0,10.143,8.284,18.597,18.422,18.597c10.146,0,18.424-8.454,18.424-18.597v-62.37l-10.646-10.651H517l-10.65,10.651v62.37
	c0,17.58-16.737,29.584-35.165,29.584c-17.069,0-34.985-10.987-34.985-29.584"/>
<path fill-rule="evenodd" clip-rule="evenodd" fill="#1F1A16" d="M552.666,174.681h7.268c8.96,0,15.553-8.448,15.553-17.749
	c0-8.788-6.763-16.225-15.553-16.225h-7.268 M611.319,230.125h-29.241l-22.313-45.132h-7.099v34.488l10.815,10.644h-42.256
	l10.648-10.644v-78.436l-10.648-10.651h38.708c18.089,0,38.539,8.284,38.539,26.537c0,13.352-10.985,21.636-18.756,24.345
	l20.953,38.205L611.319,230.125z"/>
<path fill-rule="evenodd" clip-rule="evenodd" fill="#1F1A16" d="M655.942,192.437l-10.982-32.964l-11.663,32.964 M600.504,230.125
	l10.815-10.818l31.782-88.912h12.841l30.938,88.912l10.818,10.818h-42.935l10.479-10.644l-5.576-16.907h-29.921l-5.92,16.907
	l10.482,10.644H600.504z"/>
<polyline fill-rule="evenodd" clip-rule="evenodd" fill="#1F1A16" points="745.871,230.125 703.615,230.125 714.262,219.481 
	714.262,140.707 700.404,140.707 686.88,154.229 686.88,130.395 762.607,130.395 762.607,154.229 749.083,140.707 735.056,140.707 
	735.056,219.481 "/>
<polyline fill-rule="evenodd" clip-rule="evenodd" fill="#1F1A16" points="767.506,230.125 778.159,219.481 778.159,141.046 
	767.506,130.395 837.834,130.395 837.834,154.229 824.308,140.707 798.951,140.707 798.951,171.978 816.529,171.978 
	827.178,161.162 827.178,192.941 816.529,182.288 798.951,182.288 798.951,219.815 824.308,219.815 837.834,206.297 
	837.834,230.125 "/>
<path fill-rule="evenodd" clip-rule="evenodd" fill="#1F1A16" d="M919.979,134.117v24.337l-15.719-15.886
	c-3.551-3.382-7.268-4.734-12.341-4.734c-18.933,0-21.3,23.665-21.3,42.426c0,18.428,3.042,41.753,21.3,41.753
	c5.073,0,8.79-1.351,12.341-4.903l15.719-15.722v25.022c-9.976,5.237-17.069,5.915-28.06,5.915c-25.692,0-45.64-25.187-45.64-52.065
	c0-26.874,19.947-52.061,45.64-52.061C903.922,128.199,910.004,128.869,919.979,134.117"/>
<polyline fill-rule="evenodd" clip-rule="evenodd" fill="#1F1A16" points="960.208,181.445 960.208,219.481 971.023,230.125 
	928.768,230.125 939.416,219.481 939.416,141.046 928.768,130.395 971.023,130.395 960.208,141.046 960.208,171.3 992.321,171.3 
	992.321,141.046 981.508,130.395 1023.764,130.395 1013.115,141.046 1013.115,219.481 1023.764,230.125 981.508,230.125 
	992.321,219.481 992.321,181.445 "/>
</svg>
